PathFileType	4	(X/Y/Z)	Patient4_TMGait_0pt5_01_right_26.trc.trc
DataRate	CameraRate	NumFrames	NumMarkers	Units	OrigDataRate	OrigDataStartFrame	OrigNumFrames
77.348066298342	77.348066298342	4	33	mm	77.348066298342	124	       141
Frame#	Time	L.ASIS			Sacral			L.Shoulder			Chest			R.Shoulder			Neck			R.ASIS			R.Thigh.Superior			R.Thigh.Lateral			R.Thigh.Inferior			R.Patella			L.Thigh.Superior			L.Thigh.Lateral			L.Thigh.Inferior			L.Patella			L.Shank.Superior			L.Shank.Lateral			L.Shank.Inferior			R.Shank.Superior			R.Shank.Lateral			R.Shank.Inferior			R.Heel			R.Midfoot.Superior			R.Midfoot.Lateral			R.Toe			L.Heel			L.Midfoot.Lateral			L.Midfoot.Superior			L.Toe			L.Elbow			L.Wrist			R.Elbow			R.Wrist			
		X1	Y1	Z1	X2	Y2	Z2	X3	Y3	Z3	X4	Y4	Z4	X5	Y5	Z5	X6	Y6	Z6	X7	Y7	Z7	X8	Y8	Z8	X9	Y9	Z9	X10	Y10	Z10	X11	Y11	Z11	X12	Y12	Z12	X13	Y13	Z13	X14	Y14	Z14	X15	Y15	Z15	X16	Y16	Z16	X17	Y17	Z17	X18	Y18	Z18	X19	Y19	Z19	X20	Y20	Z20	X21	Y21	Z21	X22	Y22	Z22	X23	Y23	Z23	X24	Y24	Z24	X25	Y25	Z25	X26	Y26	Z26	X27	Y27	Z27	X28	Y28	Z28	X29	Y29	Z29	X30	Y30	Z30	X31	Y31	Z31	X32	Y32	Z32	X33	Y33	Z33	

124	35.740214285714	867.173802981941	949.041977290390	319.724921015578	639.573160285515	997.201090813126	454.006384729630	839.685100940723	1425.271964664642	294.188487226591	920.133196290178	1351.868552138849	466.013953021564	816.558736765567	1427.769994401996	629.083638890473	823.524685060576	1485.848404638629	444.909293246512	852.817417048870	932.849358788548	594.835666023453	925.149264219408	752.568434008455	568.292154643691	862.879668273124	632.622840595702	629.318363481072	953.746893093096	593.672974823973	554.208321563843	975.882928718226	509.829946027555	563.938440488766	866.198689595955	722.262596462578	348.203937908693	753.298640575000	629.534288053866	279.172144883827	806.529971780306	535.763070963901	347.988142377891	789.016829187125	467.229049025938	356.903233239106	753.781924749701	401.967781756224	345.795526193512	650.354471587657	302.588120386158	290.313181258269	678.262401152577	185.338616369643	362.589467523538	962.360582797212	419.108172487301	572.252523257757	907.194271352023	305.467100411722	632.193811000601	973.125632084440	219.370702971311	577.880871824759	871.516135846026	41.476732384130	546.632711333823	1036.854543268273	107.318451494106	587.331785834961	954.324612309314	38.063577144158	622.352076138427	1158.747242800429	64.567860399862	616.110484336316	532.387191082207	38.357346985921	400.250743201420	605.501231822176	34.726417412158	319.118536097244	689.773407294460	94.736575701046	345.836772499525	817.285902461054	41.800486741837	314.224280289959	874.838748536375	1095.420629375140	132.162894608616	1121.307353451900	1017.800020433856	144.467001039814	662.775117887238	1120.898606102412	733.944241525681	628.018305569963	864.388718449981	762.542753874181	
125	35.753142857143	869.502277147246	948.073008958133	322.349424261613	642.024762286481	996.033410069238	456.975788608825	840.865806754584	1424.388940443492	297.285429602613	921.704713615956	1351.248755581217	469.064726101054	817.863723942317	1426.673028410792	632.254854239732	824.684749977655	1484.973975703635	448.088414898578	855.889625669578	931.823694524170	597.307715394613	928.520094628003	751.359850510143	570.066976866231	865.433458008037	631.490631413695	630.187678370928	956.396731966515	592.699009824981	555.272148540392	977.204750324507	507.818144036712	564.544740386609	867.901386546169	720.876566837560	349.965865729815	754.213685631585	628.681298914827	281.490242374784	807.508036503346	534.422389930262	349.737641431711	789.858282629443	465.180256028500	358.384814283357	753.037552640196	400.576334106126	347.225262155900	647.687145405861	303.237881679704	291.410865680449	673.667124627088	185.082890313476	362.912472806612	962.734894443179	416.817774876238	572.661360089435	905.949730125425	303.815027509142	632.340157940952	970.089394769106	216.917727229141	577.493935226634	864.740619621304	41.636806477533	546.188055112807	1031.343959530441	104.362351324651	586.287650668337	947.406140431005	37.315886721449	622.097853241789	1152.679573193580	59.405819179384	615.505130302936	525.920793466548	39.435395939212	399.979390088965	599.126535440515	35.155325557413	319.058313790858	683.780948887457	94.804582760641	345.661560884902	810.973745983324	41.266886201676	314.127289190543	876.995680713353	1094.005030465481	136.093897136054	1123.821903683585	1017.824621443329	149.568911043743	664.479391655863	1118.991299058970	735.161126144740	629.737528378418	862.174404639244	762.418767298629	
126	35.766071428571	871.703133897041	947.365101333232	325.063921324647	644.279938771914	995.174495011052	459.987006736034	842.081862494356	1423.739489986850	300.427243907608	923.341468212377	1350.826169832778	472.140786012446	819.313280006926	1425.811722548529	635.490189845294	825.996122385389	1484.354633630063	451.314711950867	858.881136039759	931.097881735824	599.875960231216	931.814495243805	750.473724782545	571.848410322459	868.163049656173	630.760634854907	631.237823401859	959.042706566253	592.009568063126	556.337001261840	978.704426429945	506.076120626639	565.261808010731	869.980383900869	719.848172970074	351.872358644666	755.829587357688	627.860141934152	283.966366427851	809.552661050109	533.201488104590	351.597383655563	791.924885209759	463.083189800506	359.848062593314	753.220525370763	399.184411042855	348.698794121861	645.719111899867	304.223228064346	292.574669669679	669.544886764397	185.083878786436	363.191630491975	963.128608899710	414.863896795615	573.128505474703	904.766386771493	302.565764570920	632.710962219840	966.870814827575	214.795672445839	577.178953006733	857.731434338283	41.838929442568	545.904885919691	1025.456334453895	101.931731224077	585.396889508450	940.292611621300	36.796327762486	621.955512544190	1146.323509120809	55.077925169652	614.976040422270	519.565424268670	41.273164988089	399.647809145284	592.820751440704	35.988327625031	318.962473670769	678.046388870920	94.991392755053	345.392910570051	804.664142794028	40.655852169951	314.017062562128	878.840064196159	1092.598227368515	140.327074472144	1125.775554974654	1016.882536496625	154.877790061845	667.143178378651	1116.814452431843	736.502031635305	632.999691012896	859.589882060004	762.346986066797	
127	35.779000000000	873.732042334691	946.985831624969	327.851006247998	646.321310359431	994.679510833639	463.024854395238	843.351945932605	1423.389084152658	303.590995709322	925.034943835344	1350.643339197888	475.218837920949	820.916372394341	1425.255275386336	638.757750261625	827.465126966980	1484.039766417782	454.556449352190	861.736217118293	930.713608778208	602.538450296424	934.911500422925	749.926081934946	573.662723842023	870.904773811200	630.422782758508	632.494674043194	961.510583321326	591.573570226841	557.438350448955	980.194313239289	504.634923188626	566.110469595604	872.431483000818	719.254784960951	353.935559606132	758.210761558800	627.101160874720	286.559796183398	812.756686463948	532.153962730052	353.536227779979	795.306793401670	461.002188779049	361.234838888583	754.429395408889	397.844738491637	350.174852615163	644.563046345014	305.621153645350	293.781292127918	665.998838047835	185.438352636961	363.418900026480	963.410694641016	413.279716915462	573.682113812711	903.572716619874	301.720036973974	633.308404891196	963.502818156035	213.062143779042	576.972804569476	850.730333614881	42.050939409866	545.777309463045	1019.376196810707	100.089888635194	584.715453275669	933.219867626630	36.487369166967	621.919788428855	1139.876612466901	51.714338765478	614.569057083857	513.402853473986	44.084920916573	399.275345518332	586.626937043521	37.374573874378	318.838194075377	672.651530532273	95.348555673464	345.029737826116	798.345872777785	39.973342439414	313.903491141471	880.337740108169	1091.280577488200	144.857321475962	1127.125341473753	1014.996546404291	160.358164105684	670.708000819476	1114.512555721449	737.999777575664	637.837190081387	856.781131052817	762.369473061349	
